<?xml version="1.0" encoding="UTF-8" standalone="no"?>
<svg
   xmlns:dc="http://purl.org/dc/elements/1.1/"
   xmlns:cc="http://creativecommons.org/ns#"
   xmlns:rdf="http://www.w3.org/1999/02/22-rdf-syntax-ns#"
   xmlns:svg="http://www.w3.org/2000/svg"
   xmlns="http://www.w3.org/2000/svg"
   viewBox="0 0 284 204"
   height="204"
   width="284"
   xml:space="preserve"
   id="svg2"
   version="1.1"><metadata
     id="metadata8"><rdf:RDF><cc:Work
         rdf:about=""><dc:format>image/svg+xml</dc:format><dc:type
           rdf:resource="http://purl.org/dc/dcmitype/StillImage" /></cc:Work></rdf:RDF></metadata><defs
     id="defs6" /><g
     transform="matrix(1.3333333,0,0,-1.3333333,0,204)"
     id="g10"><g
       transform="translate(103,-17)"
       id="g12"><path
         id="path14"
         style="fill:#ffffff;fill-opacity:1;fill-rule:nonzero;stroke:none"
         d="m 17,153 c 0,9.38884 -7.611159,17 -17,17 -9.388841,0 -17,-7.61116 -17,-17 z M 61.5,17 c 9.38884,0 17,7.61116 17,17 0,9.38884 -7.61116,17 -17,17 z M -17,153 V 54 h 34 v 99 z M 20,17 H 61.5 V 51 H 20 Z M -17,54 C -17,33.56546 -0.434536,17 20,17 v 34 c -1.656855,0 -3,1.343147 -3,3 z" /></g><g
       transform="translate(0,75.5)"
       id="g16"><path
         id="path18"
         style="fill:#ffffff;fill-opacity:1;fill-rule:nonzero;stroke:none"
         d="M 46,23 C 46,10.297451 35.702549,0 23,0 10.297451,0 0,10.297451 0,23 0,35.702549 10.297451,46 23,46 35.702549,46 46,35.702549 46,23 Z" /></g><g
       transform="translate(167,75.5)"
       id="g20"><path
         id="path22"
         style="fill:#ffffff;fill-opacity:1;fill-rule:nonzero;stroke:none"
         d="M 46,23 C 46,10.297451 35.702549,0 23,0 10.297451,0 0,10.297451 0,23 0,35.702549 10.297451,46 23,46 35.702549,46 46,35.702549 46,23 Z" /></g></g></svg>